HIERARCHY
ROOT Bone
{
	OFFSET 1.000000 1.000000 -1.000000
	CHANNELS 6 Xposition Yposition Zposition Xrotation Yrotation Zrotation
	End Site
	{
		OFFSET -2.000000 -2.000000 2.000000
	}
}
MOTION
Frames: 1
Frame Time: 0.041667
1.000000 1.000000 -1.000000 -0.000003 0.000002 0.000000 
